<svg aria-hidden="true" style="position: absolute; width: 0; height: 0; overflow: hidden;" version="1.1" xmlns="http://www.w3.org/2000/svg" xmlns:xlink="http://www.w3.org/1999/xlink">
<defs>
<symbol id="icon-error" viewBox="0 0 32 32">
<path d="M9.080 0.292c0.181-0.18 0.431-0.292 0.706-0.292 0 0 0 0 0 0h12.427c0 0 0 0 0 0 0.276 0 0.525 0.112 0.706 0.292l8.788 8.788c0.18 0.181 0.292 0.431 0.292 0.706 0 0 0 0 0 0v-0 12.427c0 0 0 0 0 0 0 0.276-0.112 0.525-0.292 0.706l-8.788 8.788c-0.181 0.18-0.43 0.292-0.706 0.292-0 0-0 0-0 0h-12.427c-0 0-0 0-0 0-0.276 0-0.525-0.112-0.706-0.292l-8.788-8.788c-0.18-0.181-0.292-0.43-0.292-0.706 0-0 0-0 0-0v0-12.427c0-0 0-0 0-0 0-0.276 0.112-0.525 0.292-0.706l8.788-8.788zM10.2 2l-8.2 8.2v11.6l8.2 8.2h11.6l8.2-8.2v-11.6l-8.2-8.2h-11.6z"></path>
<path d="M9.292 9.293c0.181-0.181 0.431-0.294 0.708-0.294s0.527 0.112 0.708 0.294l5.292 5.293 5.292-5.293c0.181-0.181 0.431-0.293 0.708-0.293 0.553 0 1.001 0.448 1.001 1.001 0 0.276-0.112 0.526-0.293 0.707v0l-5.293 5.293 5.293 5.291c0.181 0.181 0.292 0.432 0.292 0.708s-0.112 0.526-0.292 0.708l0-0c-0.181 0.182-0.431 0.294-0.708 0.294s-0.527-0.113-0.708-0.294l-5.292-5.293-5.292 5.293c-0.181 0.182-0.432 0.295-0.709 0.295-0.415 0-0.771-0.252-0.922-0.612l-0.002-0.007c-0.048-0.113-0.076-0.245-0.076-0.384 0-0.277 0.112-0.527 0.294-0.708v0l5.293-5.292-5.292-5.292c-0.181-0.181-0.294-0.431-0.294-0.708s0.112-0.527 0.294-0.708l0-0z"></path>
</symbol>
<symbol id="icon-ok" viewBox="0 0 35 32">
<path d="M2.8 16c0-0.001 0-0.001 0-0.002 0-7.29 5.91-13.2 13.2-13.2 2.43 0 4.707 0.657 6.662 1.802l-0.062-0.034c0.17 0.099 0.375 0.157 0.593 0.157 0.663 0 1.2-0.537 1.2-1.2 0-0.439-0.236-0.823-0.588-1.032l-0.006-0.003c-2.238-1.314-4.928-2.090-7.8-2.090-8.616 0-15.6 6.984-15.6 15.6s6.984 15.6 15.6 15.6c8.615 0 15.599-6.983 15.6-15.598v-0c0-0.663-0.537-1.2-1.2-1.2s-1.2 0.537-1.2 1.2v0c0 7.29-5.91 13.2-13.2 13.2s-13.2-5.91-13.2-13.2v0z"></path>
<path d="M33.65 4.85c0.216-0.217 0.35-0.517 0.35-0.848 0-0.663-0.536-1.201-1.199-1.203h-0c-0.332 0-0.632 0.135-0.85 0.352l-15.95 15.952-6.35-6.35c-0.217-0.217-0.518-0.352-0.85-0.352-0.664 0-1.202 0.538-1.202 1.202 0 0.332 0.134 0.632 0.352 0.85v0l7.2 7.2c0.217 0.218 0.518 0.353 0.85 0.353s0.632-0.135 0.85-0.353l16.8-16.8z"></path>
</symbol>
</defs>
</svg>
